<svg width="16" height="16" viewBox="0 0 16 16" fill="none" xmlns="http://www.w3.org/2000/svg">
<g clip-path="url(#clip0_1_5672)">
<path d="M15.3334 7.99996V9.33329C15.3334 11.5426 12.0501 13.3333 8.00008 13.3333C4.02208 13.3333 0.784081 11.606 0.670081 9.45129L0.666748 9.33329V7.99996C0.666748 10.2093 3.95008 12 8.00008 12C12.0501 12 15.3334 10.2093 15.3334 7.99996ZM8.00008 2.66663C12.0501 2.66663 15.3334 4.45729 15.3334 6.66663C15.3334 8.87596 12.0501 10.6666 8.00008 10.6666C3.95008 10.6666 0.666748 8.87596 0.666748 6.66663C0.666748 4.45729 3.95008 2.66663 8.00008 2.66663Z" fill="#4D84FF"/>
</g>
<defs>
<clipPath id="clip0_1_5672">
<rect width="16" height="16" fill="white"/>
</clipPath>
</defs>
</svg>
